<svg viewBox="0 0 60 44" role="img" width="900" height="660"><title>Deployment map: Tipping Point</title><rect x="0" y="0" width="60" height="44" fill="#f4f1e8"></rect><defs><g id="objMarker"><circle cx="0" cy="0" r="3.79" fill="black" fill-opacity="0.3" stroke="none"></circle><circle cx="0" cy="0" r="0.79" fill="red" stroke="none"></circle></g><rect x="0" y="0" width="4" height="6" id="template-4x6" opacity="1" vector-effect="non-scaling-stroke" stroke="black" stroke-width="1.2" fill="#808080"></rect><rect x="0" y="0" width="6" height="12" id="template-6x12" opacity="1" vector-effect="non-scaling-stroke" stroke="black" stroke-width="1.2" fill="#808080"></rect><rect x="0" y="0" width="5" height="10" id="template-5x10" opacity="1" vector-effect="non-scaling-stroke" stroke="black" stroke-width="1.2" fill="#808080"></rect><polygon points="1.5,0 4.5,0.6 5.5,2.2 7,4.5 5.8,6.5 6,8.5 4,11 2.5,9.5 2,6.5 0,4 1,1.8" id="template-ruins-a" opacity="1" vector-effect="non-scaling-stroke" stroke="black" stroke-width="1.2" fill="#808080"></polygon><path d="M 4 0 C 6.21 0 8 1.79 8 4 C 8 6.21 6.21 8 4 8 C 1.79 8 0 6.21 0 4 C 0 1.79 1.79 0 4 0 Z" id="template-curved-bastion" opacity="1" vector-effect="non-scaling-stroke" stroke="black" stroke-width="1.2" fill="#808080"></path></defs><polygon id="attacker" points="0,44 0,0 12,0 12,22 20,22 20,32 20,44" fill="#cf4b33" stroke="none" stroke-width="0.4"></polygon><polygon id="defender" points="60,0 60,44 48,44 48,22 40,22 40,0" fill="#7d8b7f" stroke="none" stroke-width="0.4"></polygon><g><use x="30" y="22" href="#objMarker"></use><use x="22" y="8" href="#objMarker"></use><use x="14" y="34" href="#objMarker"></use><use x="38" y="36" href="#objMarker"></use><use x="46" y="10" href="#objMarker"></use></g><g><line x1="30" y1="0" x2="30" y2="44" stroke="black" stroke-dasharray="0.5 0.5" stroke-width="0.2" opacity="0.5"></line><line x1="0" y1="22" x2="60" y2="22" stroke="black" stroke-dasharray="0.5 0.5" stroke-width="0.2" opacity="0.5"></line></g><g id="buildings"><use href="#template-6x12" transform="translate(8 6) rotate(0)" id="building-0" opacity="1"></use><use href="#template-6x12" transform="translate(52 38) rotate(180)" id="building-1" opacity="1"></use><use href="#template-4x6" transform="translate(24 4) rotate(0)" id="building-2" opacity="1"></use><use href="#template-4x6" transform="translate(36 40) rotate(180)" id="building-3" opacity="1"></use><use href="#template-5x10" transform="translate(40 8) rotate(0)" id="building-4" opacity="1"></use><use href="#template-5x10" transform="translate(20 36) rotate(180)" id="building-5" opacity="1"></use><use href="#template-ruins-a" transform="translate(22 14) rotate(0)" id="building-6" opacity="1"></use><use href="#template-ruins-a" transform="translate(38 30) rotate(180)" id="building-7" opacity="1"></use></g></svg>
