<svg viewBox="0 0 60 44" role="img" width="900" height="660"><title>Deployment map: Tipping Point</title><rect x="0" y="0" width="60" height="44" fill="#f4f1e8"></rect><defs><rect x="0" y="0" width="7" height="11.5" id="template-large-area" opacity="1" vector-effect="non-scaling-stroke" stroke="black" stroke-width="1.2" fill="#808080"></rect><rect x="0" y="0" width="4" height="6" id="template-small-area" opacity="1" vector-effect="non-scaling-stroke" stroke="black" stroke-width="1.2" fill="#808080"></rect><rect x="0" y="0" width="6" height="2" id="template-small-pipes" opacity="1" vector-effect="non-scaling-stroke" stroke="black" stroke-width="1.2" fill="#808080"></rect><rect x="0" y="0" width="10" height="2.5" id="template-large-pipes" opacity="1" vector-effect="non-scaling-stroke" stroke="black" stroke-width="1.2" fill="#808080"></rect><rect x="0" y="0" width="5.5" height="1" id="template-pipe" opacity="1" vector-effect="non-scaling-stroke" fill="#b9772e" stroke="black" stroke-width="0.4"></rect><polygon points="0,0 3.5,0 3.5,1 3,1 3,0.5 0.5,0.5 0.5,1 0,1" id="template-barricade" opacity="1" vector-effect="non-scaling-stroke" fill="#c9a86a" stroke="black" stroke-width="0.4"></polygon><polygon points="0,0 2,0 8,11.5 0,11.5" id="template-shoe" opacity="1" vector-effect="non-scaling-stroke" stroke="black" stroke-width="1.2" fill="#808080"></polygon><polygon points="0,0 8,0 2,11.5 0,11.5" id="template-shoe-mirror" opacity="1" vector-effect="non-scaling-stroke" stroke="black" stroke-width="1.2" fill="#808080"></polygon><g id="icon-skull"><circle cx="2" cy="2" r="1.875" fill="#e8dcc0" stroke="#33312c" stroke-width="0.25"></circle><g transform="translate(0.6 0.6) scale(0.0875)"><path d="M16 0C7.164 0 0 6.27 0 14c0 4.383 2.305 8.29 5.906 10.855.602.434.95 1.133.844 1.872l-.586 4.136A.991.991 0 0 0 7.144 32H12v-3.5c0-.273.227-.5.5-.5h1c.273 0 .5.227.5.5V32h4v-3.5c0-.273.227-.5.5-.5h1c.273 0 .5.227.5.5V32h4.855c.606 0 1.07-.54.98-1.137l-.585-4.136c-.105-.735.238-1.438.844-1.872C29.695 22.29 32 18.383 32 14c0-7.73-7.164-14-16-14Zm-6 20c-2.207 0-4-1.793-4-4s1.793-4 4-4 4 1.793 4 4-1.793 4-4 4Zm12 0c-2.207 0-4-1.793-4-4s1.793-4 4-4 4 1.793 4 4-1.793 4-4 4Zm0 0" fill="#33312c"></path></g></g><g id="icon-fortress-defender"><circle cx="2" cy="2" r="1.875" fill="#7d8b7f" stroke="#33312c" stroke-width="0.25"></circle><g><rect x="1.1" y="0.85" width="1.8" height="2.3" fill="#33312c"></rect><rect x="1.325" y="0.85" width="0.3" height="0.32" fill="#7d8b7f"></rect><rect x="1.85" y="0.85" width="0.3" height="0.32" fill="#7d8b7f"></rect><rect x="2.375" y="0.85" width="0.3" height="0.32" fill="#7d8b7f"></rect><rect x="1.42" y="1.5" width="0.16" height="0.5" fill="#7d8b7f"></rect><rect x="2.42" y="1.5" width="0.16" height="0.5" fill="#7d8b7f"></rect><path d="M1.68 3.15 L1.68 2.55 Q2 2.25 2.32 2.55 L2.32 3.15 Z" fill="#7d8b7f"></path></g></g><g id="icon-fortress-attacker"><circle cx="2" cy="2" r="1.875" fill="#cf4b33" stroke="#33312c" stroke-width="0.25"></circle><g><rect x="1.1" y="0.85" width="1.8" height="2.3" fill="#33312c"></rect><rect x="1.325" y="0.85" width="0.3" height="0.32" fill="#cf4b33"></rect><rect x="1.85" y="0.85" width="0.3" height="0.32" fill="#cf4b33"></rect><rect x="2.375" y="0.85" width="0.3" height="0.32" fill="#cf4b33"></rect><rect x="1.42" y="1.5" width="0.16" height="0.5" fill="#cf4b33"></rect><rect x="2.42" y="1.5" width="0.16" height="0.5" fill="#cf4b33"></rect><path d="M1.68 3.15 L1.68 2.55 Q2 2.25 2.32 2.55 L2.32 3.15 Z" fill="#cf4b33"></path></g></g></defs><polygon id="attacker" points="0,44 0,0 12,0 12,22 20,22 20,32 20,44" fill="#cf4b33" stroke="none" stroke-width="0.4"></polygon><polygon id="defender" points="60,0 60,44 48,44 48,22 40,22 40,0" fill="#7d8b7f" stroke="none" stroke-width="0.4"></polygon><g><line x1="30" y1="0" x2="30" y2="44" stroke="black" stroke-dasharray="0.5 0.5" stroke-width="0.2" opacity="0.5"></line><line x1="0" y1="22" x2="60" y2="22" stroke="black" stroke-dasharray="0.5 0.5" stroke-width="0.2" opacity="0.5"></line></g><line id="territory" x1="26" y1="0" x2="34" y2="44" stroke="black" stroke-width="0.3" opacity="0.6"></line><g id="buildings"><use href="#template-large-pipes" transform="translate(8.25 9.75) rotate(90 5 1.25)" id="building-0" opacity="1" vector-effect="non-scaling-stroke" stroke="black" stroke-width="1.2" fill="#808080"></use><use href="#template-large-pipes" transform="translate(41.75 31.75) rotate(270 5 1.25)" id="building-1" opacity="1" vector-effect="non-scaling-stroke" stroke="black" stroke-width="1.2" fill="#808080"></use><use href="#template-large-area" transform="translate(18.5 0) rotate(0 3.5 5.75)" id="building-2" opacity="1" vector-effect="non-scaling-stroke" stroke="black" stroke-width="1.2" fill="#808080"></use><use href="#template-large-area" transform="translate(34.5 32.5) rotate(180 3.5 5.75)" id="building-3" opacity="1" vector-effect="non-scaling-stroke" stroke="black" stroke-width="1.2" fill="#808080"></use><use href="#template-large-area" transform="translate(10 19.5) rotate(0 3.5 5.75)" id="building-4" opacity="1" vector-effect="non-scaling-stroke" stroke="black" stroke-width="1.2" fill="#808080"></use><use href="#template-large-area" transform="translate(43 13) rotate(180 3.5 5.75)" id="building-5" opacity="1" vector-effect="non-scaling-stroke" stroke="black" stroke-width="1.2" fill="#808080"></use><use href="#template-small-pipes" transform="translate(15 33) rotate(90 3 1)" id="building-6" opacity="1" vector-effect="non-scaling-stroke" stroke="black" stroke-width="1.2" fill="#808080"></use><use href="#template-small-pipes" transform="translate(39 9) rotate(270 3 1)" id="building-7" opacity="1" vector-effect="non-scaling-stroke" stroke="black" stroke-width="1.2" fill="#808080"></use><use href="#template-small-pipes" transform="translate(11 37) rotate(0 3 1)" id="building-8" opacity="1" vector-effect="non-scaling-stroke" stroke="black" stroke-width="1.2" fill="#808080"></use><use href="#template-small-pipes" transform="translate(43 5) rotate(180 3 1)" id="building-9" opacity="1" vector-effect="non-scaling-stroke" stroke="black" stroke-width="1.2" fill="#808080"></use><use href="#template-shoe" transform="translate(25 16.25) rotate(0 4 5.75)" id="building-10" opacity="1" vector-effect="non-scaling-stroke" stroke="black" stroke-width="1.2" fill="#808080"></use><use href="#template-shoe" transform="translate(27 16.25) rotate(180 4 5.75)" id="building-11" opacity="1" vector-effect="non-scaling-stroke" stroke="black" stroke-width="1.2" fill="#808080"></use><use href="#template-small-area" transform="translate(19.5 38) rotate(0 2 3)" id="building-12" opacity="1" vector-effect="non-scaling-stroke" stroke="black" stroke-width="1.2" fill="#808080"></use><use href="#template-small-area" transform="translate(36.5 0) rotate(180 2 3)" id="building-13" opacity="1" vector-effect="non-scaling-stroke" stroke="black" stroke-width="1.2" fill="#808080"></use><use href="#template-small-area" transform="translate(24.5 33) rotate(90 2 3)" id="building-14" opacity="1" vector-effect="non-scaling-stroke" stroke="black" stroke-width="1.2" fill="#808080"></use><use href="#template-small-area" transform="translate(31.5 5) rotate(270 2 3)" id="building-15" opacity="1" vector-effect="non-scaling-stroke" stroke="black" stroke-width="1.2" fill="#808080"></use></g><g id="features"><g transform="translate(10.5 24.5) rotate(-90 3.5 2.5)" id="feature-0"><path d="M0 0 H0.5 V4.5 H7 V5 H0 Z" fill="#4a8c3c" stroke="#2c5822" stroke-width="0.2"></path><circle cx="0.25" cy="2.25" r="0.2" fill="#2c5822"></circle><circle cx="3.15" cy="4.75" r="0.16000000000000003" fill="#2c5822"></circle><circle cx="5.04" cy="4.75" r="0.12" fill="#2c5822"></circle></g><g transform="translate(42.5 14.5) rotate(90 3.5 2.5)" id="feature-1"><path d="M0 0 H0.5 V4.5 H7 V5 H0 Z" fill="#4a8c3c" stroke="#2c5822" stroke-width="0.2"></path><circle cx="0.25" cy="2.25" r="0.2" fill="#2c5822"></circle><circle cx="3.15" cy="4.75" r="0.16000000000000003" fill="#2c5822"></circle><circle cx="5.04" cy="4.75" r="0.12" fill="#2c5822"></circle></g><g transform="translate(43 3) rotate(0 2.5 3.5)" id="feature-2"><path d="M0 0 H0.5 V6.5 H5 V7 H0 Z" fill="#4a8c3c" stroke="#2c5822" stroke-width="0.2"></path><path d="M0.5 2.166666666666667 V6.5 H3.5 Z" fill="#4a8c3c" stroke="#2c5822" stroke-width="0.2"></path><circle cx="0.25" cy="3.15" r="0.2" fill="#2c5822"></circle><circle cx="2.25" cy="6.75" r="0.16000000000000003" fill="#2c5822"></circle><circle cx="3.5999999999999996" cy="6.75" r="0.12" fill="#2c5822"></circle><path d="M0.5 2.166666666666667 L3.5 6.5 L3.1 6.5 L0.5 2.566666666666667 Z" fill="#2c5822"></path></g><g transform="translate(28 21.5) rotate(90 2.5 1.5)" id="feature-3"><rect x="0" y="0" width="5" height="3" fill="#2f6b73" stroke="#1a3d42" stroke-width="0.2"></rect><rect x="0.7000000000000001" y="0.6000000000000001" width="0.2" height="1.7999999999999998" fill="#1a3d42"></rect><rect x="1.15" y="0.6000000000000001" width="0.2" height="1.7999999999999998" fill="#1a3d42"></rect><rect x="1.6" y="0.6000000000000001" width="0.2" height="1.7999999999999998" fill="#1a3d42"></rect><circle cx="3.6999999999999997" cy="1.5" r="0.8999999999999999" fill="#1a3d42"></circle></g><g transform="translate(33 15) rotate(0 3 1)" id="feature-4"><path d="M0.46 0.54 L5.54 0.54 A0.46 0.46 0 0 1 5.54 1.46 L0.46 1.46 A0.46 0.46 0 0 1 0.46 0.54 Z" fill="#b9772e" stroke="#6e451a" stroke-width="0.2"></path><rect x="1.0160000000000002" y="0" width="0.36800000000000005" height="2" fill="#6e451a"></rect><rect x="2.816" y="0" width="0.36800000000000005" height="2" fill="#6e451a"></rect><rect x="4.616" y="0" width="0.36800000000000005" height="2" fill="#6e451a"></rect></g></g><g id="icons"><use href="#icon-skull" transform="translate(28 20)" id="icon-0"></use><use href="#icon-fortress-defender" transform="translate(44.5 17)" id="icon-1"></use><use href="#icon-fortress-attacker" transform="translate(11.5 23)" id="icon-2"></use><use href="#icon-skull" transform="translate(20 3)" id="icon-3"></use><use href="#icon-skull" transform="translate(36 37)" id="icon-4"></use></g></svg>
